# xmcd CD database file
#
# Track frame offsets:
#	150
#	14405
#	29138
#	41100
#	54125
#	66675
#	81488
#	94835
#	108218
#	121570
#	134930
#	147668
#
# Disc length: 2136 seconds
#
# Revision: 0
# Processed by: cddbd v1.5.2PL0 Copyright (c) Steve Scherf et al.
# Submitted via: CDex 1.51
#
DISCID=b708560c
DTITLE=lester young - lady be good
DYEAR=1900
DGENRE=Jazz
TTITLE0=lady be good
TTITLE1=boogie woogie
TTITLE2=i found a new baby
TTITLE3=when you're smiling
TTITLE4=i can't believe that you're in love with me
TTITLE5=every tub
TTITLE6=jumpin at the woodside
TTITLE7=way down under in new orleans
TTITLE8=countless blues
TTITLE9=them there eyes
TTITLE10=i can't get started with you
TTITLE11=shorty george
EXTD=
EXTT0=
EXTT1=
EXTT2=
EXTT3=
EXTT4=
EXTT5=
EXTT6=
EXTT7=
EXTT8=
EXTT9=
EXTT10=
EXTT11=
PLAYORDER=
